<?xml version="1.0" encoding="UTF-8" standalone="no"?><!DOCTYPE svg PUBLIC "-//W3C//DTD SVG 1.1//EN" "http://www.w3.org/Graphics/SVG/1.1/DTD/svg11.dtd"><svg width="100%" height="100%" viewBox="0 0 340 56" version="1.1" xmlns="http://www.w3.org/2000/svg" xmlns:xlink="http://www.w3.org/1999/xlink" xml:space="preserve" xmlns:serif="http://www.serif.com/" style="fill-rule:evenodd;clip-rule:evenodd;stroke-miterlimit:2;"><g><g><path d="M0,54.672l0,-53.345l10.803,0l0,53.345l-10.803,0Zm21.072,0l0,-53.345l10.455,0l21.954,35.749l0,-35.749l9.983,0l0,53.345l-10.79,0l-21.619,-35.067l0,35.067l-9.983,0Zm53.804,0l0,-53.345l20.017,0c4.072,0 7.338,0.534 9.809,1.614c2.459,1.081 4.383,2.744 5.774,4.992c1.403,2.235 2.099,4.582 2.099,7.04c0,2.273 -0.621,4.421 -1.85,6.433c-1.23,2.011 -3.092,3.638 -5.588,4.88c3.228,0.943 5.712,2.558 7.438,4.842c1.738,2.273 2.607,4.967 2.607,8.072c0,2.508 -0.534,4.83 -1.589,6.978c-1.056,2.148 -2.359,3.8 -3.912,4.967c-1.552,1.155 -3.501,2.036 -5.835,2.633c-2.348,0.596 -5.216,0.894 -8.618,0.894l-20.352,0Zm7.078,-30.919l11.535,0c3.13,0 5.377,-0.212 6.73,-0.621c1.801,-0.534 3.155,-1.428 4.061,-2.67c0.907,-1.242 1.366,-2.794 1.366,-4.669c0,-1.776 -0.422,-3.34 -1.279,-4.681c-0.844,-1.354 -2.061,-2.285 -3.638,-2.782c-1.577,-0.496 -4.284,-0.745 -8.109,-0.745l-10.666,0l0,16.168Zm0,24.66l13.286,0c2.285,0 3.887,-0.087 4.818,-0.261c1.614,-0.285 2.98,-0.769 4.073,-1.452c1.093,-0.683 1.987,-1.677 2.695,-2.98c0.707,-1.304 1.055,-2.807 1.055,-4.508c0,-1.999 -0.509,-3.725 -1.54,-5.203c-1.018,-1.477 -2.433,-2.508 -4.246,-3.104c-1.801,-0.596 -4.409,-0.894 -7.799,-0.894l-12.342,0l0,18.402Zm77.856,-47.086l7.078,0l0,30.807c0,5.364 -0.609,9.623 -1.813,12.778c-1.217,3.141 -3.402,5.711 -6.556,7.686c-3.167,1.974 -7.302,2.968 -12.442,2.968c-4.98,0 -9.065,-0.857 -12.232,-2.583c-3.178,-1.726 -5.438,-4.21 -6.792,-7.475c-1.353,-3.266 -2.036,-7.724 -2.036,-13.374l0,-30.807l7.078,0l0,30.795c0,4.631 0.434,8.059 1.291,10.244c0.857,2.198 2.322,3.899 4.421,5.079c2.086,1.192 4.644,1.788 7.661,1.788c5.166,0 8.853,-1.18 11.051,-3.527c2.198,-2.359 3.291,-6.879 3.291,-13.584l0,-30.795Zm18.564,53.345l0,-53.345l7.078,0l0,47.086l26.225,0l0,6.259l-33.303,0Zm41.436,0l0,-53.345l7.078,0l0,26.449l26.498,-26.449l9.562,0l-22.376,21.631l23.344,31.714l-9.313,0l-18.986,-26.921l-8.729,8.444l0,18.477l-7.078,0Z" style="fill:#e27f29;fill-rule:nonzero;"/><path d="M292.258,7.576l0,26.955l26.955,-26.955l-26.955,0Z" style="fill:#e27f29;"/><path d="M284.206,43.689l0,2.908" style="fill:none;stroke:#fff;stroke-width:0.57px;"/><path d="M322.144,37.361l0,-26.955l-26.955,26.955l26.955,0Z" style="fill:#e27f29;"/><path d="M328.791,0.634l-43.985,44.081l0,9.611l53.693,0l0,-53.692l-9.708,0Z" style="fill:none;stroke:#e27f29;stroke-width:0.57px;"/></g></g></svg>